<svg class="main-svg" xmlns="http://www.w3.org/2000/svg" xmlns:xlink="http://www.w3.org/1999/xlink" width="500" height="300" style="" viewBox="0 0 500 300"><rect x="0" y="0" width="500" height="300" style="fill: rgb(255, 255, 255); fill-opacity: 1;"/><defs id="defs-10ef40"><g class="clips"><clipPath id="clip10ef40xyplot" class="plotclip"><rect width="340" height="120"/></clipPath><clipPath class="axesclip" id="clip10ef40x"><rect x="80" y="0" width="340" height="300"/></clipPath><clipPath class="axesclip" id="clip10ef40y"><rect x="0" y="100" width="500" height="120"/></clipPath><clipPath class="axesclip" id="clip10ef40xy"><rect x="80" y="100" width="340" height="120"/></clipPath></g><g class="gradients"/><g class="patterns"/></defs><g class="bglayer"/><g class="layer-below"><g class="imagelayer"/><g class="shapelayer"/></g><g class="cartesianlayer"><g class="subplot xy"><g class="layer-subplot"><g class="shapelayer"/><g class="imagelayer"/></g><g class="minor-gridlayer"><g class="x"/><g class="y"/></g><g class="gridlayer"><g class="x"/><g class="y"/></g><g class="zerolinelayer"/><g class="layer-between"><g class="shapelayer"/><g class="imagelayer"/></g><path class="xlines-below"/><path class="ylines-below"/><g class="overlines-below"/><g class="xaxislayer-below"/><g class="yaxislayer-below"/><g class="overaxes-below"/><g class="overplot"><g class="xy" transform="translate(80,100)" clip-path="url(#clip10ef40xyplot)"><g class="scatterlayer mlayer"><g class="trace scatter traceee3aa2" style="stroke-miterlimit: 2; opacity: 1;"><g class="fills"/><g class="errorbars"/><g class="lines"/><g class="points"><path class="point" transform="translate(112.07,92.34)" d="M3.3,0A3.3,3.3 0 1,1 0,-3.3A3.3,3.3 0 0,1 3.3,0Z" style="opacity: 0.7; stroke-width: 1px; fill: rgb(51, 102, 204); fill-opacity: 1; stroke: rgb(255, 255, 255); stroke-opacity: 1;"/><path class="point" transform="translate(280.4,28.73)" d="M0.49,0A0.49,0.49 0 1,1 0,-0.49A0.49,0.49 0 0,1 0.49,0Z" style="opacity: 0.7; stroke-width: 1px; fill: rgb(51, 102, 204); fill-opacity: 1; stroke: rgb(255, 255, 255); stroke-opacity: 1;"/><path class="point" transform="translate(129.59,51.88)" d="M7.17,0A7.17,7.17 0 1,1 0,-7.17A7.17,7.17 0 0,1 7.17,0Z" style="opacity: 0.7; stroke-width: 1px; fill: rgb(51, 102, 204); fill-opacity: 1; stroke: rgb(255, 255, 255); stroke-opacity: 1;"/><path class="point" transform="translate(139.85,60.55)" d="M2.2,0A2.2,2.2 0 1,1 0,-2.2A2.2,2.2 0 0,1 2.2,0Z" style="opacity: 0.7; stroke-width: 1px; fill: rgb(51, 102, 204); fill-opacity: 1; stroke: rgb(255, 255, 255); stroke-opacity: 1;"/><path class="point" transform="translate(192.15,34.08)" d="M21.21,0A21.21,21.21 0 1,1 0,-21.21A21.21,21.21 0 0,1 21.21,0Z" style="opacity: 0.7; stroke-width: 1px; fill: rgb(51, 102, 204); fill-opacity: 1; stroke: rgb(255, 255, 255); stroke-opacity: 1;"/><path class="point" transform="translate(294.56,15.58)" d="M1.54,0A1.54,1.54 0 1,1 0,-1.54A1.54,1.54 0 0,1 1.54,0Z" style="opacity: 0.7; stroke-width: 1px; fill: rgb(51, 102, 204); fill-opacity: 1; stroke: rgb(255, 255, 255); stroke-opacity: 1;"/><path class="point" transform="translate(157.48,50.6)" d="M19.47,0A19.47,19.47 0 1,1 0,-19.47A19.47,19.47 0 0,1 19.47,0Z" style="opacity: 0.7; stroke-width: 1px; fill: rgb(51, 102, 204); fill-opacity: 1; stroke: rgb(255, 255, 255); stroke-opacity: 1;"/><path class="point" transform="translate(175.56,38.7)" d="M8.73,0A8.73,8.73 0 1,1 0,-8.73A8.73,8.73 0 0,1 8.73,0Z" style="opacity: 0.7; stroke-width: 1px; fill: rgb(51, 102, 204); fill-opacity: 1; stroke: rgb(255, 255, 255); stroke-opacity: 1;"/><path class="point" transform="translate(234,38.07)" d="M4.87,0A4.87,4.87 0 1,1 0,-4.87A4.87,4.87 0 0,1 4.87,0Z" style="opacity: 0.7; stroke-width: 1px; fill: rgb(51, 102, 204); fill-opacity: 1; stroke: rgb(255, 255, 255); stroke-opacity: 1;"/><path class="point" transform="translate(187.05,60.91)" d="M3.06,0A3.06,3.06 0 1,1 0,-3.06A3.06,3.06 0 0,1 3.06,0Z" style="opacity: 0.7; stroke-width: 1px; fill: rgb(51, 102, 204); fill-opacity: 1; stroke: rgb(255, 255, 255); stroke-opacity: 1;"/><path class="point" transform="translate(272.79,18.51)" d="M1.48,0A1.48,1.48 0 1,1 0,-1.48A1.48,1.48 0 0,1 1.48,0Z" style="opacity: 0.7; stroke-width: 1px; fill: rgb(51, 102, 204); fill-opacity: 1; stroke: rgb(255, 255, 255); stroke-opacity: 1;"/><path class="point" transform="translate(283.39,14.79)" d="M6.6,0A6.6,6.6 0 1,1 0,-6.6A6.6,6.6 0 0,1 6.6,0Z" style="opacity: 0.7; stroke-width: 1px; fill: rgb(51, 102, 204); fill-opacity: 1; stroke: rgb(255, 255, 255); stroke-opacity: 1;"/><path class="point" transform="translate(187.58,34.93)" d="M1.44,0A1.44,1.44 0 1,1 0,-1.44A1.44,1.44 0 0,1 1.44,0Z" style="opacity: 0.7; stroke-width: 1px; fill: rgb(51, 102, 204); fill-opacity: 1; stroke: rgb(255, 255, 255); stroke-opacity: 1;"/><path class="point" transform="translate(136.25,45.41)" d="M2.82,0A2.82,2.82 0 1,1 0,-2.82A2.82,2.82 0 0,1 2.82,0Z" style="opacity: 0.7; stroke-width: 1px; fill: rgb(51, 102, 204); fill-opacity: 1; stroke: rgb(255, 255, 255); stroke-opacity: 1;"/><path class="point" transform="translate(268.4,22.75)" d="M4.09,0A4.09,4.09 0 1,1 0,-4.09A4.09,4.09 0 0,1 4.09,0Z" style="opacity: 0.7; stroke-width: 1px; fill: rgb(51, 102, 204); fill-opacity: 1; stroke: rgb(255, 255, 255); stroke-opacity: 1;"/><path class="point" transform="translate(303.16,24.82)" d="M0.92,0A0.92,0.92 0 1,1 0,-0.92A0.92,0.92 0 0,1 0.92,0Z" style="opacity: 0.7; stroke-width: 1px; fill: rgb(51, 102, 204); fill-opacity: 1; stroke: rgb(255, 255, 255); stroke-opacity: 1;"/><path class="point" transform="translate(228.89,36.01)" d="M1.16,0A1.16,1.16 0 1,1 0,-1.16A1.16,1.16 0 0,1 1.16,0Z" style="opacity: 0.7; stroke-width: 1px; fill: rgb(51, 102, 204); fill-opacity: 1; stroke: rgb(255, 255, 255); stroke-opacity: 1;"/><path class="point" transform="translate(237.46,31.52)" d="M2.91,0A2.91,2.91 0 1,1 0,-2.91A2.91,2.91 0 0,1 2.91,0Z" style="opacity: 0.7; stroke-width: 1px; fill: rgb(51, 102, 204); fill-opacity: 1; stroke: rgb(255, 255, 255); stroke-opacity: 1;"/><path class="point" transform="translate(168.95,46.39)" d="M0.99,0A0.99,0.99 0 1,1 0,-0.99A0.99,0.99 0 0,1 0.99,0Z" style="opacity: 0.7; stroke-width: 1px; fill: rgb(51, 102, 204); fill-opacity: 1; stroke: rgb(255, 255, 255); stroke-opacity: 1;"/><path class="point" transform="translate(110.5,55.86)" d="M4.04,0A4.04,4.04 0 1,1 0,-4.04A4.04,4.04 0 0,1 4.04,0Z" style="opacity: 0.7; stroke-width: 1px; fill: rgb(51, 102, 204); fill-opacity: 1; stroke: rgb(255, 255, 255); stroke-opacity: 1;"/><path class="point" transform="translate(117.64,52.43)" d="M3.14,0A3.14,3.14 0 1,1 0,-3.14A3.14,3.14 0 0,1 3.14,0Z" style="opacity: 0.7; stroke-width: 1px; fill: rgb(51, 102, 204); fill-opacity: 1; stroke: rgb(255, 255, 255); stroke-opacity: 1;"/><path class="point" transform="translate(266.18,28.72)" d="M1.05,0A1.05,1.05 0 1,1 0,-1.05A1.05,1.05 0 0,1 1.05,0Z" style="opacity: 0.7; stroke-width: 1px; fill: rgb(51, 102, 204); fill-opacity: 1; stroke: rgb(255, 255, 255); stroke-opacity: 1;"/><path class="point" transform="translate(160.48,49.03)" d="M7.6,0A7.6,7.6 0 1,1 0,-7.6A7.6,7.6 0 0,1 7.6,0Z" style="opacity: 0.7; stroke-width: 1px; fill: rgb(51, 102, 204); fill-opacity: 1; stroke: rgb(255, 255, 255); stroke-opacity: 1;"/><path class="point" transform="translate(170.44,36.62)" d="M5.57,0A5.57,5.57 0 1,1 0,-5.57A5.57,5.57 0 0,1 5.57,0Z" style="opacity: 0.7; stroke-width: 1px; fill: rgb(51, 102, 204); fill-opacity: 1; stroke: rgb(255, 255, 255); stroke-opacity: 1;"/><path class="point" transform="translate(264.7,34.45)" d="M3.07,0A3.07,3.07 0 1,1 0,-3.07A3.07,3.07 0 0,1 3.07,0Z" style="opacity: 0.7; stroke-width: 1px; fill: rgb(51, 102, 204); fill-opacity: 1; stroke: rgb(255, 255, 255); stroke-opacity: 1;"/><path class="point" transform="translate(302.99,20.06)" d="M1.25,0A1.25,1.25 0 1,1 0,-1.25A1.25,1.25 0 0,1 1.25,0Z" style="opacity: 0.7; stroke-width: 1px; fill: rgb(51, 102, 204); fill-opacity: 1; stroke: rgb(255, 255, 255); stroke-opacity: 1;"/><path class="point" transform="translate(181.2,35.21)" d="M2.64,0A2.64,2.64 0 1,1 0,-2.64A2.64,2.64 0 0,1 2.64,0Z" style="opacity: 0.7; stroke-width: 1px; fill: rgb(51, 102, 204); fill-opacity: 1; stroke: rgb(255, 255, 255); stroke-opacity: 1;"/><path class="point" transform="translate(183.79,31.71)" d="M2.57,0A2.57,2.57 0 1,1 0,-2.57A2.57,2.57 0 0,1 2.57,0Z" style="opacity: 0.7; stroke-width: 1px; fill: rgb(51, 102, 204); fill-opacity: 1; stroke: rgb(255, 255, 255); stroke-opacity: 1;"/><path class="point" transform="translate(278.59,23.2)" d="M2.81,0A2.81,2.81 0 1,1 0,-2.81A2.81,2.81 0 0,1 2.81,0Z" style="opacity: 0.7; stroke-width: 1px; fill: rgb(51, 102, 204); fill-opacity: 1; stroke: rgb(255, 255, 255); stroke-opacity: 1;"/><path class="point" transform="translate(212.23,38.77)" d="M4.71,0A4.71,4.71 0 1,1 0,-4.71A4.71,4.71 0 0,1 4.71,0Z" style="opacity: 0.7; stroke-width: 1px; fill: rgb(51, 102, 204); fill-opacity: 1; stroke: rgb(255, 255, 255); stroke-opacity: 1;"/><path class="point" transform="translate(157.27,31.5)" d="M5.39,0A5.39,5.39 0 1,1 0,-5.39A5.39,5.39 0 0,1 5.39,0Z" style="opacity: 0.7; stroke-width: 1px; fill: rgb(51, 102, 204); fill-opacity: 1; stroke: rgb(255, 255, 255); stroke-opacity: 1;"/><path class="point" transform="translate(167.82,33.16)" d="M1.17,0A1.17,1.17 0 1,1 0,-1.17A1.17,1.17 0 0,1 1.17,0Z" style="opacity: 0.7; stroke-width: 1px; fill: rgb(51, 102, 204); fill-opacity: 1; stroke: rgb(255, 255, 255); stroke-opacity: 1;"/><path class="point" transform="translate(153.92,54.6)" d="M2.75,0A2.75,2.75 0 1,1 0,-2.75A2.75,2.75 0 0,1 2.75,0Z" style="opacity: 0.7; stroke-width: 1px; fill: rgb(51, 102, 204); fill-opacity: 1; stroke: rgb(255, 255, 255); stroke-opacity: 1;"/></g><g class="text"/></g><g class="trace scatter tracee48cda" style="stroke-miterlimit: 2; opacity: 1;"><g class="fills"/><g class="errorbars"/><g class="lines"/><g class="points"><path class="point" transform="translate(201,27.15)" d="M1.11,0A1.11,1.11 0 1,1 0,-1.11A1.11,1.11 0 0,1 1.11,0Z" style="opacity: 0.7; stroke-width: 1px; fill: rgb(220, 57, 18); fill-opacity: 1; stroke: rgb(255, 255, 255); stroke-opacity: 1;"/><path class="point" transform="translate(289.89,20.34)" d="M1.67,0A1.67,1.67 0 1,1 0,-1.67A1.67,1.67 0 0,1 1.67,0Z" style="opacity: 0.7; stroke-width: 1px; fill: rgb(220, 57, 18); fill-opacity: 1; stroke: rgb(255, 255, 255); stroke-opacity: 1;"/><path class="point" transform="translate(286.45,21.12)" d="M1.88,0A1.88,1.88 0 1,1 0,-1.88A1.88,1.88 0 0,1 1.88,0Z" style="opacity: 0.7; stroke-width: 1px; fill: rgb(220, 57, 18); fill-opacity: 1; stroke: rgb(255, 255, 255); stroke-opacity: 1;"/><path class="point" transform="translate(212.15,30.3)" d="M1.25,0A1.25,1.25 0 1,1 0,-1.25A1.25,1.25 0 0,1 1.25,0Z" style="opacity: 0.7; stroke-width: 1px; fill: rgb(220, 57, 18); fill-opacity: 1; stroke: rgb(255, 255, 255); stroke-opacity: 1;"/><path class="point" transform="translate(229.91,33.99)" d="M1.58,0A1.58,1.58 0 1,1 0,-1.58A1.58,1.58 0 0,1 1.58,0Z" style="opacity: 0.7; stroke-width: 1px; fill: rgb(220, 57, 18); fill-opacity: 1; stroke: rgb(255, 255, 255); stroke-opacity: 1;"/><path class="point" transform="translate(245.36,28.5)" d="M1.24,0A1.24,1.24 0 1,1 0,-1.24A1.24,1.24 0 0,1 1.24,0Z" style="opacity: 0.7; stroke-width: 1px; fill: rgb(220, 57, 18); fill-opacity: 1; stroke: rgb(255, 255, 255); stroke-opacity: 1;"/><path class="point" transform="translate(267.3,27.03)" d="M1.87,0A1.87,1.87 0 1,1 0,-1.87A1.87,1.87 0 0,1 1.87,0Z" style="opacity: 0.7; stroke-width: 1px; fill: rgb(220, 57, 18); fill-opacity: 1; stroke: rgb(255, 255, 255); stroke-opacity: 1;"/><path class="point" transform="translate(288.72,23.34)" d="M1.37,0A1.37,1.37 0 1,1 0,-1.37A1.37,1.37 0 0,1 1.37,0Z" style="opacity: 0.7; stroke-width: 1px; fill: rgb(220, 57, 18); fill-opacity: 1; stroke: rgb(255, 255, 255); stroke-opacity: 1;"/><path class="point" transform="translate(285.74,21.37)" d="M1.34,0A1.34,1.34 0 1,1 0,-1.34A1.34,1.34 0 0,1 1.34,0Z" style="opacity: 0.7; stroke-width: 1px; fill: rgb(220, 57, 18); fill-opacity: 1; stroke: rgb(255, 255, 255); stroke-opacity: 1;"/><path class="point" transform="translate(281.51,18.69)" d="M4.57,0A4.57,4.57 0 1,1 0,-4.57A4.57,4.57 0 0,1 4.57,0Z" style="opacity: 0.7; stroke-width: 1px; fill: rgb(220, 57, 18); fill-opacity: 1; stroke: rgb(255, 255, 255); stroke-opacity: 1;"/><path class="point" transform="translate(284.18,21.19)" d="M5.3,0A5.3,5.3 0 1,1 0,-5.3A5.3,5.3 0 0,1 5.3,0Z" style="opacity: 0.7; stroke-width: 1px; fill: rgb(220, 57, 18); fill-opacity: 1; stroke: rgb(255, 255, 255); stroke-opacity: 1;"/><path class="point" transform="translate(276.53,21.03)" d="M1.91,0A1.91,1.91 0 1,1 0,-1.91A1.91,1.91 0 0,1 1.91,0Z" style="opacity: 0.7; stroke-width: 1px; fill: rgb(220, 57, 18); fill-opacity: 1; stroke: rgb(255, 255, 255); stroke-opacity: 1;"/><path class="point" transform="translate(255.62,33.32)" d="M1.84,0A1.84,1.84 0 1,1 0,-1.84A1.84,1.84 0 0,1 1.84,0Z" style="opacity: 0.7; stroke-width: 1px; fill: rgb(220, 57, 18); fill-opacity: 1; stroke: rgb(255, 255, 255); stroke-opacity: 1;"/><path class="point" transform="translate(289.96,16.49)" d="M0.32,0A0.32,0.32 0 1,1 0,-0.32A0.32,0.32 0 0,1 0.32,0Z" style="opacity: 0.7; stroke-width: 1px; fill: rgb(220, 57, 18); fill-opacity: 1; stroke: rgb(255, 255, 255); stroke-opacity: 1;"/><path class="point" transform="translate(295.72,22.23)" d="M1.18,0A1.18,1.18 0 1,1 0,-1.18A1.18,1.18 0 0,1 1.18,0Z" style="opacity: 0.7; stroke-width: 1px; fill: rgb(220, 57, 18); fill-opacity: 1; stroke: rgb(255, 255, 255); stroke-opacity: 1;"/><path class="point" transform="translate(278.34,18.91)" d="M4.45,0A4.45,4.45 0 1,1 0,-4.45A4.45,4.45 0 0,1 4.45,0Z" style="opacity: 0.7; stroke-width: 1px; fill: rgb(220, 57, 18); fill-opacity: 1; stroke: rgb(255, 255, 255); stroke-opacity: 1;"/><path class="point" transform="translate(222.85,30.91)" d="M0.48,0A0.48,0.48 0 1,1 0,-0.48A0.48,0.48 0 0,1 0.48,0Z" style="opacity: 0.7; stroke-width: 1px; fill: rgb(220, 57, 18); fill-opacity: 1; stroke: rgb(255, 255, 255); stroke-opacity: 1;"/><path class="point" transform="translate(290.79,20.48)" d="M2.38,0A2.38,2.38 0 1,1 0,-2.38A2.38,2.38 0 0,1 2.38,0Z" style="opacity: 0.7; stroke-width: 1px; fill: rgb(220, 57, 18); fill-opacity: 1; stroke: rgb(255, 255, 255); stroke-opacity: 1;"/><path class="point" transform="translate(305.25,19.61)" d="M1.26,0A1.26,1.26 0 1,1 0,-1.26A1.26,1.26 0 0,1 1.26,0Z" style="opacity: 0.7; stroke-width: 1px; fill: rgb(220, 57, 18); fill-opacity: 1; stroke: rgb(255, 255, 255); stroke-opacity: 1;"/><path class="point" transform="translate(247.89,28.87)" d="M3.63,0A3.63,3.63 0 1,1 0,-3.63A3.63,3.63 0 0,1 3.63,0Z" style="opacity: 0.7; stroke-width: 1px; fill: rgb(220, 57, 18); fill-opacity: 1; stroke: rgb(255, 255, 255); stroke-opacity: 1;"/><path class="point" transform="translate(262.02,23.8)" d="M1.91,0A1.91,1.91 0 1,1 0,-1.91A1.91,1.91 0 0,1 1.91,0Z" style="opacity: 0.7; stroke-width: 1px; fill: rgb(220, 57, 18); fill-opacity: 1; stroke: rgb(255, 255, 255); stroke-opacity: 1;"/><path class="point" transform="translate(230.49,35.05)" d="M2.76,0A2.76,2.76 0 1,1 0,-2.76A2.76,2.76 0 0,1 2.76,0Z" style="opacity: 0.7; stroke-width: 1px; fill: rgb(220, 57, 18); fill-opacity: 1; stroke: rgb(255, 255, 255); stroke-opacity: 1;"/><path class="point" transform="translate(225.6,32)" d="M1.86,0A1.86,1.86 0 1,1 0,-1.86A1.86,1.86 0 0,1 1.86,0Z" style="opacity: 0.7; stroke-width: 1px; fill: rgb(220, 57, 18); fill-opacity: 1; stroke: rgb(255, 255, 255); stroke-opacity: 1;"/><path class="point" transform="translate(257.42,30.67)" d="M1.36,0A1.36,1.36 0 1,1 0,-1.36A1.36,1.36 0 0,1 1.36,0Z" style="opacity: 0.7; stroke-width: 1px; fill: rgb(220, 57, 18); fill-opacity: 1; stroke: rgb(255, 255, 255); stroke-opacity: 1;"/><path class="point" transform="translate(273.26,24.15)" d="M0.83,0A0.83,0.83 0 1,1 0,-0.83A0.83,0.83 0 0,1 0.83,0Z" style="opacity: 0.7; stroke-width: 1px; fill: rgb(220, 57, 18); fill-opacity: 1; stroke: rgb(255, 255, 255); stroke-opacity: 1;"/><path class="point" transform="translate(278.77,18.12)" d="M3.72,0A3.72,3.72 0 1,1 0,-3.72A3.72,3.72 0 0,1 3.72,0Z" style="opacity: 0.7; stroke-width: 1px; fill: rgb(220, 57, 18); fill-opacity: 1; stroke: rgb(255, 255, 255); stroke-opacity: 1;"/><path class="point" transform="translate(286.7,18.23)" d="M1.76,0A1.76,1.76 0 1,1 0,-1.76A1.76,1.76 0 0,1 1.76,0Z" style="opacity: 0.7; stroke-width: 1px; fill: rgb(220, 57, 18); fill-opacity: 1; stroke: rgb(255, 255, 255); stroke-opacity: 1;"/><path class="point" transform="translate(291.73,16.6)" d="M1.61,0A1.61,1.61 0 1,1 0,-1.61A1.61,1.61 0 0,1 1.61,0Z" style="opacity: 0.7; stroke-width: 1px; fill: rgb(220, 57, 18); fill-opacity: 1; stroke: rgb(255, 255, 255); stroke-opacity: 1;"/><path class="point" transform="translate(218.43,36.45)" d="M4.93,0A4.93,4.93 0 1,1 0,-4.93A4.93,4.93 0 0,1 4.93,0Z" style="opacity: 0.7; stroke-width: 1px; fill: rgb(220, 57, 18); fill-opacity: 1; stroke: rgb(255, 255, 255); stroke-opacity: 1;"/><path class="point" transform="translate(285.73,21.15)" d="M4.55,0A4.55,4.55 0 1,1 0,-4.55A4.55,4.55 0 0,1 4.55,0Z" style="opacity: 0.7; stroke-width: 1px; fill: rgb(220, 57, 18); fill-opacity: 1; stroke: rgb(255, 255, 255); stroke-opacity: 1;"/></g><g class="text"/></g><g class="trace scatter tracec88bcb" style="stroke-miterlimit: 2; opacity: 1;"><g class="fills"/><g class="errorbars"/><g class="lines"/><g class="points"><path class="point" transform="translate(203.32,35.4)" d="M3.37,0A3.37,3.37 0 1,1 0,-3.37A3.37,3.37 0 0,1 3.37,0Z" style="opacity: 0.7; stroke-width: 1px; fill: rgb(255, 153, 0); fill-opacity: 1; stroke: rgb(255, 255, 255); stroke-opacity: 1;"/><path class="point" transform="translate(190.51,94.54)" d="M2.06,0A2.06,2.06 0 1,1 0,-2.06A2.06,2.06 0 0,1 2.06,0Z" style="opacity: 0.7; stroke-width: 1px; fill: rgb(255, 153, 0); fill-opacity: 1; stroke: rgb(255, 255, 255); stroke-opacity: 1;"/><path class="point" transform="translate(131.32,66.54)" d="M1.66,0A1.66,1.66 0 1,1 0,-1.66A1.66,1.66 0 0,1 1.66,0Z" style="opacity: 0.7; stroke-width: 1px; fill: rgb(255, 153, 0); fill-opacity: 1; stroke: rgb(255, 255, 255); stroke-opacity: 1;"/><path class="point" transform="translate(237.92,78.54)" d="M0.75,0A0.75,0.75 0 1,1 0,-0.75A0.75,0.75 0 0,1 0.75,0Z" style="opacity: 0.7; stroke-width: 1px; fill: rgb(255, 153, 0); fill-opacity: 1; stroke: rgb(255, 255, 255); stroke-opacity: 1;"/><path class="point" transform="translate(123,75.41)" d="M2.21,0A2.21,2.21 0 1,1 0,-2.21A2.21,2.21 0 0,1 2.21,0Z" style="opacity: 0.7; stroke-width: 1px; fill: rgb(255, 153, 0); fill-opacity: 1; stroke: rgb(255, 255, 255); stroke-opacity: 1;"/><path class="point" transform="translate(71.8,80.84)" d="M1.69,0A1.69,1.69 0 1,1 0,-1.69A1.69,1.69 0 0,1 1.69,0Z" style="opacity: 0.7; stroke-width: 1px; fill: rgb(255, 153, 0); fill-opacity: 1; stroke: rgb(255, 255, 255); stroke-opacity: 1;"/><path class="point" transform="translate(148.48,79.14)" d="M2.46,0A2.46,2.46 0 1,1 0,-2.46A2.46,2.46 0 0,1 2.46,0Z" style="opacity: 0.7; stroke-width: 1px; fill: rgb(255, 153, 0); fill-opacity: 1; stroke: rgb(255, 255, 255); stroke-opacity: 1;"/><path class="point" transform="translate(96.2,90.52)" d="M1.22,0A1.22,1.22 0 1,1 0,-1.22A1.22,1.22 0 0,1 1.22,0Z" style="opacity: 0.7; stroke-width: 1px; fill: rgb(255, 153, 0); fill-opacity: 1; stroke: rgb(255, 255, 255); stroke-opacity: 1;"/><path class="point" transform="translate(139.57,78.7)" d="M1.87,0A1.87,1.87 0 1,1 0,-1.87A1.87,1.87 0 0,1 1.87,0Z" style="opacity: 0.7; stroke-width: 1px; fill: rgb(255, 153, 0); fill-opacity: 1; stroke: rgb(255, 255, 255); stroke-opacity: 1;"/><path class="point" transform="translate(112.65,49.7)" d="M0.49,0A0.49,0.49 0 1,1 0,-0.49A0.49,0.49 0 0,1 0.49,0Z" style="opacity: 0.7; stroke-width: 1px; fill: rgb(255, 153, 0); fill-opacity: 1; stroke: rgb(255, 255, 255); stroke-opacity: 1;"/><path class="point" transform="translate(50.25,87.08)" d="M4.7,0A4.7,4.7 0 1,1 0,-4.7A4.7,4.7 0 0,1 4.7,0Z" style="opacity: 0.7; stroke-width: 1px; fill: rgb(255, 153, 0); fill-opacity: 1; stroke: rgb(255, 255, 255); stroke-opacity: 1;"/><path class="point" transform="translate(176.82,69.36)" d="M1.14,0A1.14,1.14 0 1,1 0,-1.14A1.14,1.14 0 0,1 1.14,0Z" style="opacity: 0.7; stroke-width: 1px; fill: rgb(255, 153, 0); fill-opacity: 1; stroke: rgb(255, 255, 255); stroke-opacity: 1;"/><path class="point" transform="translate(134.74,83.34)" d="M2.48,0A2.48,2.48 0 1,1 0,-2.48A2.48,2.48 0 0,1 2.48,0Z" style="opacity: 0.7; stroke-width: 1px; fill: rgb(255, 153, 0); fill-opacity: 1; stroke: rgb(255, 255, 255); stroke-opacity: 1;"/><path class="point" transform="translate(149.44,70.42)" d="M0.41,0A0.41,0.41 0 1,1 0,-0.41A0.41,0.41 0 0,1 0.41,0Z" style="opacity: 0.7; stroke-width: 1px; fill: rgb(255, 153, 0); fill-opacity: 1; stroke: rgb(255, 255, 255); stroke-opacity: 1;"/><path class="point" transform="translate(197.96,37.32)" d="M5.23,0A5.23,5.23 0 1,1 0,-5.23A5.23,5.23 0 0,1 5.23,0Z" style="opacity: 0.7; stroke-width: 1px; fill: rgb(255, 153, 0); fill-opacity: 1; stroke: rgb(255, 255, 255); stroke-opacity: 1;"/><path class="point" transform="translate(236.27,76.84)" d="M0.43,0A0.43,0.43 0 1,1 0,-0.43A0.43,0.43 0 0,1 0.43,0Z" style="opacity: 0.7; stroke-width: 1px; fill: rgb(255, 153, 0); fill-opacity: 1; stroke: rgb(255, 255, 255); stroke-opacity: 1;"/><path class="point" transform="translate(91.47,63.92)" d="M1.29,0A1.29,1.29 0 1,1 0,-1.29A1.29,1.29 0 0,1 1.29,0Z" style="opacity: 0.7; stroke-width: 1px; fill: rgb(255, 153, 0); fill-opacity: 1; stroke: rgb(255, 255, 255); stroke-opacity: 1;"/><path class="point" transform="translate(95.13,74.11)" d="M5.11,0A5.11,5.11 0 1,1 0,-5.11A5.11,5.11 0 0,1 5.11,0Z" style="opacity: 0.7; stroke-width: 1px; fill: rgb(255, 153, 0); fill-opacity: 1; stroke: rgb(255, 255, 255); stroke-opacity: 1;"/><path class="point" transform="translate(240.36,66.53)" d="M0.7,0A0.7,0.7 0 1,1 0,-0.7A0.7,0.7 0 0,1 0.7,0Z" style="opacity: 0.7; stroke-width: 1px; fill: rgb(255, 153, 0); fill-opacity: 1; stroke: rgb(255, 255, 255); stroke-opacity: 1;"/><path class="point" transform="translate(99.35,61.1)" d="M0.76,0A0.76,0.76 0 1,1 0,-0.76A0.76,0.76 0 0,1 0.76,0Z" style="opacity: 0.7; stroke-width: 1px; fill: rgb(255, 153, 0); fill-opacity: 1; stroke: rgb(255, 255, 255); stroke-opacity: 1;"/><path class="point" transform="translate(127.28,59.96)" d="M2.79,0A2.79,2.79 0 1,1 0,-2.79A2.79,2.79 0 0,1 2.79,0Z" style="opacity: 0.7; stroke-width: 1px; fill: rgb(255, 153, 0); fill-opacity: 1; stroke: rgb(255, 255, 255); stroke-opacity: 1;"/><path class="point" transform="translate(110.43,67.99)" d="M1.84,0A1.84,1.84 0 1,1 0,-1.84A1.84,1.84 0 0,1 1.84,0Z" style="opacity: 0.7; stroke-width: 1px; fill: rgb(255, 153, 0); fill-opacity: 1; stroke: rgb(255, 255, 255); stroke-opacity: 1;"/><path class="point" transform="translate(86.46,87.22)" d="M0.71,0A0.71,0.71 0 1,1 0,-0.71A0.71,0.71 0 0,1 0.71,0Z" style="opacity: 0.7; stroke-width: 1px; fill: rgb(255, 153, 0); fill-opacity: 1; stroke: rgb(255, 255, 255); stroke-opacity: 1;"/><path class="point" transform="translate(132.07,71.78)" d="M3.49,0A3.49,3.49 0 1,1 0,-3.49A3.49,3.49 0 0,1 3.49,0Z" style="opacity: 0.7; stroke-width: 1px; fill: rgb(255, 153, 0); fill-opacity: 1; stroke: rgb(255, 255, 255); stroke-opacity: 1;"/><path class="point" transform="translate(135.51,94.82)" d="M0.83,0A0.83,0.83 0 1,1 0,-0.83A0.83,0.83 0 0,1 0.83,0Z" style="opacity: 0.7; stroke-width: 1px; fill: rgb(255, 153, 0); fill-opacity: 1; stroke: rgb(255, 255, 255); stroke-opacity: 1;"/><path class="point" transform="translate(69.99,88.64)" d="M1.04,0A1.04,1.04 0 1,1 0,-1.04A1.04,1.04 0 0,1 1.04,0Z" style="opacity: 0.7; stroke-width: 1px; fill: rgb(255, 153, 0); fill-opacity: 1; stroke: rgb(255, 255, 255); stroke-opacity: 1;"/><path class="point" transform="translate(235.88,32.1)" d="M1.44,0A1.44,1.44 0 1,1 0,-1.44A1.44,1.44 0 0,1 1.44,0Z" style="opacity: 0.7; stroke-width: 1px; fill: rgb(255, 153, 0); fill-opacity: 1; stroke: rgb(255, 255, 255); stroke-opacity: 1;"/><path class="point" transform="translate(115.49,61.11)" d="M2.56,0A2.56,2.56 0 1,1 0,-2.56A2.56,2.56 0 0,1 2.56,0Z" style="opacity: 0.7; stroke-width: 1px; fill: rgb(255, 153, 0); fill-opacity: 1; stroke: rgb(255, 255, 255); stroke-opacity: 1;"/><path class="point" transform="translate(99.78,83.39)" d="M2.13,0A2.13,2.13 0 1,1 0,-2.13A2.13,2.13 0 0,1 2.13,0Z" style="opacity: 0.7; stroke-width: 1px; fill: rgb(255, 153, 0); fill-opacity: 1; stroke: rgb(255, 255, 255); stroke-opacity: 1;"/><path class="point" transform="translate(115.39,71.07)" d="M2.03,0A2.03,2.03 0 1,1 0,-2.03A2.03,2.03 0 0,1 2.03,0Z" style="opacity: 0.7; stroke-width: 1px; fill: rgb(255, 153, 0); fill-opacity: 1; stroke: rgb(255, 255, 255); stroke-opacity: 1;"/><path class="point" transform="translate(142.35,51.67)" d="M1.06,0A1.06,1.06 0 1,1 0,-1.06A1.06,1.06 0 0,1 1.06,0Z" style="opacity: 0.7; stroke-width: 1px; fill: rgb(255, 153, 0); fill-opacity: 1; stroke: rgb(255, 255, 255); stroke-opacity: 1;"/><path class="point" transform="translate(231.17,34.4)" d="M0.65,0A0.65,0.65 0 1,1 0,-0.65A0.65,0.65 0 0,1 0.65,0Z" style="opacity: 0.7; stroke-width: 1px; fill: rgb(255, 153, 0); fill-opacity: 1; stroke: rgb(255, 255, 255); stroke-opacity: 1;"/><path class="point" transform="translate(179.3,37.67)" d="M3.39,0A3.39,3.39 0 1,1 0,-3.39A3.39,3.39 0 0,1 3.39,0Z" style="opacity: 0.7; stroke-width: 1px; fill: rgb(255, 153, 0); fill-opacity: 1; stroke: rgb(255, 255, 255); stroke-opacity: 1;"/><path class="point" transform="translate(103.79,95.84)" d="M2.61,0A2.61,2.61 0 1,1 0,-2.61A2.61,2.61 0 0,1 2.61,0Z" style="opacity: 0.7; stroke-width: 1px; fill: rgb(255, 153, 0); fill-opacity: 1; stroke: rgb(255, 255, 255); stroke-opacity: 1;"/><path class="point" transform="translate(190.65,74.19)" d="M0.84,0A0.84,0.84 0 1,1 0,-0.84A0.84,0.84 0 0,1 0.84,0Z" style="opacity: 0.7; stroke-width: 1px; fill: rgb(255, 153, 0); fill-opacity: 1; stroke: rgb(255, 255, 255); stroke-opacity: 1;"/><path class="point" transform="translate(89.78,66.27)" d="M2.1,0A2.1,2.1 0 1,1 0,-2.1A2.1,2.1 0 0,1 2.1,0Z" style="opacity: 0.7; stroke-width: 1px; fill: rgb(255, 153, 0); fill-opacity: 1; stroke: rgb(255, 255, 255); stroke-opacity: 1;"/><path class="point" transform="translate(147.79,86.28)" d="M6.79,0A6.79,6.79 0 1,1 0,-6.79A6.79,6.79 0 0,1 6.79,0Z" style="opacity: 0.7; stroke-width: 1px; fill: rgb(255, 153, 0); fill-opacity: 1; stroke: rgb(255, 255, 255); stroke-opacity: 1;"/><path class="point" transform="translate(213.61,27.12)" d="M0.52,0A0.52,0.52 0 1,1 0,-0.52A0.52,0.52 0 0,1 0.52,0Z" style="opacity: 0.7; stroke-width: 1px; fill: rgb(255, 153, 0); fill-opacity: 1; stroke: rgb(255, 255, 255); stroke-opacity: 1;"/><path class="point" transform="translate(106.09,87.52)" d="M1.74,0A1.74,1.74 0 1,1 0,-1.74A1.74,1.74 0 0,1 1.74,0Z" style="opacity: 0.7; stroke-width: 1px; fill: rgb(255, 153, 0); fill-opacity: 1; stroke: rgb(255, 255, 255); stroke-opacity: 1;"/><path class="point" transform="translate(136.42,48.94)" d="M0.26,0A0.26,0.26 0 1,1 0,-0.26A0.26,0.26 0 0,1 0.26,0Z" style="opacity: 0.7; stroke-width: 1px; fill: rgb(255, 153, 0); fill-opacity: 1; stroke: rgb(255, 255, 255); stroke-opacity: 1;"/><path class="point" transform="translate(139.81,53.88)" d="M2.05,0A2.05,2.05 0 1,1 0,-2.05A2.05,2.05 0 0,1 2.05,0Z" style="opacity: 0.7; stroke-width: 1px; fill: rgb(255, 153, 0); fill-opacity: 1; stroke: rgb(255, 255, 255); stroke-opacity: 1;"/><path class="point" transform="translate(106.06,94.86)" d="M1.45,0A1.45,1.45 0 1,1 0,-1.45A1.45,1.45 0 0,1 1.45,0Z" style="opacity: 0.7; stroke-width: 1px; fill: rgb(255, 153, 0); fill-opacity: 1; stroke: rgb(255, 255, 255); stroke-opacity: 1;"/><path class="point" transform="translate(109.56,83.68)" d="M1.76,0A1.76,1.76 0 1,1 0,-1.76A1.76,1.76 0 0,1 1.76,0Z" style="opacity: 0.7; stroke-width: 1px; fill: rgb(255, 153, 0); fill-opacity: 1; stroke: rgb(255, 255, 255); stroke-opacity: 1;"/><path class="point" transform="translate(222.93,81.32)" d="M3.87,0A3.87,3.87 0 1,1 0,-3.87A3.87,3.87 0 0,1 3.87,0Z" style="opacity: 0.7; stroke-width: 1px; fill: rgb(255, 153, 0); fill-opacity: 1; stroke: rgb(255, 255, 255); stroke-opacity: 1;"/><path class="point" transform="translate(160.41,62.89)" d="M3.8,0A3.8,3.8 0 1,1 0,-3.8A3.8,3.8 0 0,1 3.8,0Z" style="opacity: 0.7; stroke-width: 1px; fill: rgb(255, 153, 0); fill-opacity: 1; stroke: rgb(255, 255, 255); stroke-opacity: 1;"/><path class="point" transform="translate(187.51,100.77)" d="M0.62,0A0.62,0.62 0 1,1 0,-0.62A0.62,0.62 0 0,1 0.62,0Z" style="opacity: 0.7; stroke-width: 1px; fill: rgb(255, 153, 0); fill-opacity: 1; stroke: rgb(255, 255, 255); stroke-opacity: 1;"/><path class="point" transform="translate(118.36,74.97)" d="M3.61,0A3.61,3.61 0 1,1 0,-3.61A3.61,3.61 0 0,1 3.61,0Z" style="opacity: 0.7; stroke-width: 1px; fill: rgb(255, 153, 0); fill-opacity: 1; stroke: rgb(255, 255, 255); stroke-opacity: 1;"/><path class="point" transform="translate(107.21,63.16)" d="M1.39,0A1.39,1.39 0 1,1 0,-1.39A1.39,1.39 0 0,1 1.39,0Z" style="opacity: 0.7; stroke-width: 1px; fill: rgb(255, 153, 0); fill-opacity: 1; stroke: rgb(255, 255, 255); stroke-opacity: 1;"/><path class="point" transform="translate(209.76,32.15)" d="M1.87,0A1.87,1.87 0 1,1 0,-1.87A1.87,1.87 0 0,1 1.87,0Z" style="opacity: 0.7; stroke-width: 1px; fill: rgb(255, 153, 0); fill-opacity: 1; stroke: rgb(255, 255, 255); stroke-opacity: 1;"/><path class="point" transform="translate(116.03,76.92)" d="M3.16,0A3.16,3.16 0 1,1 0,-3.16A3.16,3.16 0 0,1 3.16,0Z" style="opacity: 0.7; stroke-width: 1px; fill: rgb(255, 153, 0); fill-opacity: 1; stroke: rgb(255, 255, 255); stroke-opacity: 1;"/><path class="point" transform="translate(125.14,95.23)" d="M2,0A2,2 0 1,1 0,-2A2,2 0 0,1 2,0Z" style="opacity: 0.7; stroke-width: 1px; fill: rgb(255, 153, 0); fill-opacity: 1; stroke: rgb(255, 255, 255); stroke-opacity: 1;"/><path class="point" transform="translate(76.14,93.03)" d="M2.05,0A2.05,2.05 0 1,1 0,-2.05A2.05,2.05 0 0,1 2.05,0Z" style="opacity: 0.7; stroke-width: 1px; fill: rgb(255, 153, 0); fill-opacity: 1; stroke: rgb(255, 255, 255); stroke-opacity: 1;"/></g><g class="text"/></g><g class="trace scatter tracecb0a17" style="stroke-miterlimit: 2; opacity: 1;"><g class="fills"/><g class="errorbars"/><g class="lines"/><g class="points"><path class="point" transform="translate(238.74,29.36)" d="M3.71,0A3.71,3.71 0 1,1 0,-3.71A3.71,3.71 0 0,1 3.71,0Z" style="opacity: 0.7; stroke-width: 1px; fill: rgb(16, 150, 24); fill-opacity: 1; stroke: rgb(255, 255, 255); stroke-opacity: 1;"/><path class="point" transform="translate(179.33,48.89)" d="M1.76,0A1.76,1.76 0 1,1 0,-1.76A1.76,1.76 0 0,1 1.76,0Z" style="opacity: 0.7; stroke-width: 1px; fill: rgb(16, 150, 24); fill-opacity: 1; stroke: rgb(255, 255, 255); stroke-opacity: 1;"/><path class="point" transform="translate(221.84,35.22)" d="M8.05,0A8.05,8.05 0 1,1 0,-8.05A8.05,8.05 0 0,1 8.05,0Z" style="opacity: 0.7; stroke-width: 1px; fill: rgb(16, 150, 24); fill-opacity: 1; stroke: rgb(255, 255, 255); stroke-opacity: 1;"/><path class="point" transform="translate(290.15,18.69)" d="M3.38,0A3.38,3.38 0 1,1 0,-3.38A3.38,3.38 0 0,1 3.38,0Z" style="opacity: 0.7; stroke-width: 1px; fill: rgb(16, 150, 24); fill-opacity: 1; stroke: rgb(255, 255, 255); stroke-opacity: 1;"/><path class="point" transform="translate(240.23,22.89)" d="M2.36,0A2.36,2.36 0 1,1 0,-2.36A2.36,2.36 0 0,1 2.36,0Z" style="opacity: 0.7; stroke-width: 1px; fill: rgb(16, 150, 24); fill-opacity: 1; stroke: rgb(255, 255, 255); stroke-opacity: 1;"/><path class="point" transform="translate(209.16,34.22)" d="M3.88,0A3.88,3.88 0 1,1 0,-3.88A3.88,3.88 0 0,1 3.88,0Z" style="opacity: 0.7; stroke-width: 1px; fill: rgb(16, 150, 24); fill-opacity: 1; stroke: rgb(255, 255, 255); stroke-opacity: 1;"/><path class="point" transform="translate(224.89,22.44)" d="M1.19,0A1.19,1.19 0 1,1 0,-1.19A1.19,1.19 0 0,1 1.19,0Z" style="opacity: 0.7; stroke-width: 1px; fill: rgb(16, 150, 24); fill-opacity: 1; stroke: rgb(255, 255, 255); stroke-opacity: 1;"/><path class="point" transform="translate(221.2,23.45)" d="M1.97,0A1.97,1.97 0 1,1 0,-1.97A1.97,1.97 0 0,1 1.97,0Z" style="opacity: 0.7; stroke-width: 1px; fill: rgb(16, 150, 24); fill-opacity: 1; stroke: rgb(255, 255, 255); stroke-opacity: 1;"/><path class="point" transform="translate(201.73,35.53)" d="M1.78,0A1.78,1.78 0 1,1 0,-1.78A1.78,1.78 0 0,1 1.78,0Z" style="opacity: 0.7; stroke-width: 1px; fill: rgb(16, 150, 24); fill-opacity: 1; stroke: rgb(255, 255, 255); stroke-opacity: 1;"/><path class="point" transform="translate(208.21,30.01)" d="M2.17,0A2.17,2.17 0 1,1 0,-2.17A2.17,2.17 0 0,1 2.17,0Z" style="opacity: 0.7; stroke-width: 1px; fill: rgb(16, 150, 24); fill-opacity: 1; stroke: rgb(255, 255, 255); stroke-opacity: 1;"/><path class="point" transform="translate(199.24,36.24)" d="M1.54,0A1.54,1.54 0 1,1 0,-1.54A1.54,1.54 0 0,1 1.54,0Z" style="opacity: 0.7; stroke-width: 1px; fill: rgb(16, 150, 24); fill-opacity: 1; stroke: rgb(255, 255, 255); stroke-opacity: 1;"/><path class="point" transform="translate(194.35,39.48)" d="M2.07,0A2.07,2.07 0 1,1 0,-2.07A2.07,2.07 0 0,1 2.07,0Z" style="opacity: 0.7; stroke-width: 1px; fill: rgb(16, 150, 24); fill-opacity: 1; stroke: rgb(255, 255, 255); stroke-opacity: 1;"/><path class="point" transform="translate(122.37,58.17)" d="M1.7,0A1.7,1.7 0 1,1 0,-1.7A1.7,1.7 0 0,1 1.7,0Z" style="opacity: 0.7; stroke-width: 1px; fill: rgb(16, 150, 24); fill-opacity: 1; stroke: rgb(255, 255, 255); stroke-opacity: 1;"/><path class="point" transform="translate(175.67,39.6)" d="M1.6,0A1.6,1.6 0 1,1 0,-1.6A1.6,1.6 0 0,1 1.6,0Z" style="opacity: 0.7; stroke-width: 1px; fill: rgb(16, 150, 24); fill-opacity: 1; stroke: rgb(255, 255, 255); stroke-opacity: 1;"/><path class="point" transform="translate(211.32,34.87)" d="M0.97,0A0.97,0.97 0 1,1 0,-0.97A0.97,0.97 0 0,1 0.97,0Z" style="opacity: 0.7; stroke-width: 1px; fill: rgb(16, 150, 24); fill-opacity: 1; stroke: rgb(255, 255, 255); stroke-opacity: 1;"/><path class="point" transform="translate(235.55,27.61)" d="M6.09,0A6.09,6.09 0 1,1 0,-6.09A6.09,6.09 0 0,1 6.09,0Z" style="opacity: 0.7; stroke-width: 1px; fill: rgb(16, 150, 24); fill-opacity: 1; stroke: rgb(255, 255, 255); stroke-opacity: 1;"/><path class="point" transform="translate(163.11,34.2)" d="M1.39,0A1.39,1.39 0 1,1 0,-1.39A1.39,1.39 0 0,1 1.39,0Z" style="opacity: 0.7; stroke-width: 1px; fill: rgb(16, 150, 24); fill-opacity: 1; stroke: rgb(255, 255, 255); stroke-opacity: 1;"/><path class="point" transform="translate(225.72,28.93)" d="M1.05,0A1.05,1.05 0 1,1 0,-1.05A1.05,1.05 0 0,1 1.05,0Z" style="opacity: 0.7; stroke-width: 1px; fill: rgb(16, 150, 24); fill-opacity: 1; stroke: rgb(255, 255, 255); stroke-opacity: 1;"/><path class="point" transform="translate(183.65,36.5)" d="M1.51,0A1.51,1.51 0 1,1 0,-1.51A1.51,1.51 0 0,1 1.51,0Z" style="opacity: 0.7; stroke-width: 1px; fill: rgb(16, 150, 24); fill-opacity: 1; stroke: rgb(255, 255, 255); stroke-opacity: 1;"/><path class="point" transform="translate(211.91,37.16)" d="M3.13,0A3.13,3.13 0 1,1 0,-3.13A3.13,3.13 0 0,1 3.13,0Z" style="opacity: 0.7; stroke-width: 1px; fill: rgb(16, 150, 24); fill-opacity: 1; stroke: rgb(255, 255, 255); stroke-opacity: 1;"/><path class="point" transform="translate(259.1,22.51)" d="M1.16,0A1.16,1.16 0 1,1 0,-1.16A1.16,1.16 0 0,1 1.16,0Z" style="opacity: 0.7; stroke-width: 1px; fill: rgb(16, 150, 24); fill-opacity: 1; stroke: rgb(255, 255, 255); stroke-opacity: 1;"/><path class="point" transform="translate(255.62,40.36)" d="M0.6,0A0.6,0.6 0 1,1 0,-0.6A0.6,0.6 0 0,1 0.6,0Z" style="opacity: 0.7; stroke-width: 1px; fill: rgb(16, 150, 24); fill-opacity: 1; stroke: rgb(255, 255, 255); stroke-opacity: 1;"/><path class="point" transform="translate(298.4,23.52)" d="M10.14,0A10.14,10.14 0 1,1 0,-10.14A10.14,10.14 0 0,1 10.14,0Z" style="opacity: 0.7; stroke-width: 1px; fill: rgb(16, 150, 24); fill-opacity: 1; stroke: rgb(255, 255, 255); stroke-opacity: 1;"/><path class="point" transform="translate(229.59,27.23)" d="M1.08,0A1.08,1.08 0 1,1 0,-1.08A1.08,1.08 0 0,1 1.08,0Z" style="opacity: 0.7; stroke-width: 1px; fill: rgb(16, 150, 24); fill-opacity: 1; stroke: rgb(255, 255, 255); stroke-opacity: 1;"/><path class="point" transform="translate(233.18,32.51)" d="M2.98,0A2.98,2.98 0 1,1 0,-2.98A2.98,2.98 0 0,1 2.98,0Z" style="opacity: 0.7; stroke-width: 1px; fill: rgb(16, 150, 24); fill-opacity: 1; stroke: rgb(255, 255, 255); stroke-opacity: 1;"/></g><g class="text"/></g><g class="trace scatter trace2a61c6" style="stroke-miterlimit: 2; opacity: 1;"><g class="fills"/><g class="errorbars"/><g class="lines"/><g class="points"><path class="point" transform="translate(287.53,17.53)" d="M2.64,0A2.64,2.64 0 1,1 0,-2.64A2.64,2.64 0 0,1 2.64,0Z" style="opacity: 0.7; stroke-width: 1px; fill: rgb(153, 0, 153); fill-opacity: 1; stroke: rgb(255, 255, 255); stroke-opacity: 1;"/><path class="point" transform="translate(272.13,19.59)" d="M1.19,0A1.19,1.19 0 1,1 0,-1.19A1.19,1.19 0 0,1 1.19,0Z" style="opacity: 0.7; stroke-width: 1px; fill: rgb(153, 0, 153); fill-opacity: 1; stroke: rgb(255, 255, 255); stroke-opacity: 1;"/></g><g class="text"/></g></g></g></g><path class="xlines-above crisp" d="M79,220.5H420" style="fill: none; stroke-width: 1px; stroke: rgb(36, 36, 36); stroke-opacity: 1;"/><path class="ylines-above crisp" d="M79.5,100V220" style="fill: none; stroke-width: 1px; stroke: rgb(36, 36, 36); stroke-opacity: 1;"/><g class="overlines-above"/><g class="xaxislayer-above"><path class="xtick ticks crisp" d="M0,221v5" transform="translate(80,0)" style="stroke: rgb(68, 68, 68); stroke-opacity: 1; stroke-width: 1px;"/><path class="xtick ticks crisp" d="M0,221v5" transform="translate(193.32999999999998,0)" style="stroke: rgb(68, 68, 68); stroke-opacity: 1; stroke-width: 1px;"/><path class="xtick ticks crisp" d="M0,221v5" transform="translate(306.66999999999996,0)" style="stroke: rgb(68, 68, 68); stroke-opacity: 1; stroke-width: 1px;"/><path class="xtick ticks crisp" d="M0,221v5" transform="translate(420,0)" style="stroke: rgb(68, 68, 68); stroke-opacity: 1; stroke-width: 1px;"/><g class="xtick"><text text-anchor="middle" x="0" y="240.4" transform="translate(80,0)" style="font-family: Rockwell; font-size: 12px; fill: rgb(36, 36, 36); fill-opacity: 1; white-space: pre; opacity: 1;">$100</text></g><g class="xtick"><text text-anchor="middle" x="0" y="240.4" style="font-family: Rockwell; font-size: 12px; fill: rgb(36, 36, 36); fill-opacity: 1; white-space: pre; opacity: 1;" transform="translate(193.32999999999998,0)">$1000</text></g><g class="xtick"><text text-anchor="middle" x="0" y="240.4" style="font-family: Rockwell; font-size: 12px; fill: rgb(36, 36, 36); fill-opacity: 1; white-space: pre; opacity: 1;" transform="translate(306.66999999999996,0)">$10k</text></g><g class="xtick"><text text-anchor="middle" x="0" y="240.4" style="font-family: Rockwell; font-size: 12px; fill: rgb(36, 36, 36); fill-opacity: 1; white-space: pre; opacity: 1;" transform="translate(420,0)">$100k</text></g></g><g class="yaxislayer-above"><path class="ytick ticks crisp" d="M79,0h-5" transform="translate(0,200)" style="stroke: rgb(68, 68, 68); stroke-opacity: 1; stroke-width: 1px;"/><path class="ytick ticks crisp" d="M79,0h-5" transform="translate(0,160)" style="stroke: rgb(68, 68, 68); stroke-opacity: 1; stroke-width: 1px;"/><path class="ytick ticks crisp" d="M79,0h-5" transform="translate(0,120)" style="stroke: rgb(68, 68, 68); stroke-opacity: 1; stroke-width: 1px;"/><g class="ytick"><text text-anchor="end" x="71.6" y="4.199999999999999" transform="translate(0,200)" style="font-family: Rockwell; font-size: 12px; fill: rgb(36, 36, 36); fill-opacity: 1; white-space: pre; opacity: 1;">40</text></g><g class="ytick"><text text-anchor="end" x="71.6" y="4.199999999999999" style="font-family: Rockwell; font-size: 12px; fill: rgb(36, 36, 36); fill-opacity: 1; white-space: pre; opacity: 1;" transform="translate(0,160)">60</text></g><g class="ytick"><text text-anchor="end" x="71.6" y="4.199999999999999" style="font-family: Rockwell; font-size: 12px; fill: rgb(36, 36, 36); fill-opacity: 1; white-space: pre; opacity: 1;" transform="translate(0,120)">80</text></g></g><g class="overaxes-above"/></g></g><g class="polarlayer"/><g class="smithlayer"/><g class="ternarylayer"/><g class="geolayer"/><g class="funnelarealayer"/><g class="pielayer"/><g class="iciclelayer"/><g class="treemaplayer"/><g class="sunburstlayer"/><g class="glimages"/><defs id="topdefs-10ef40"><g class="clips"/><clipPath id="legend10ef40"><rect width="241" height="48" x="0" y="0"/></clipPath></defs><g class="layer-above"><g class="imagelayer"/><g class="shapelayer"><g class="shape-group" data-index="0" clip-path="url(#clip10ef40y)"><path data-index="0" fill-rule="evenodd" d="M80,142.16L420,142.16" style="opacity: 0.3; stroke: rgb(0, 0, 0); stroke-opacity: 1; fill: rgb(0, 0, 0); fill-opacity: 1; stroke-dasharray: 3px, 3px; stroke-width: 1px;"/></g><g class="shape-group" data-index="1" clip-path="url(#clip10ef40x)"><path data-index="1" fill-rule="evenodd" d="M303.07,220L303.07,100" style="opacity: 0.3; stroke: rgb(0, 0, 0); stroke-opacity: 1; fill: rgb(0, 0, 0); fill-opacity: 1; stroke-dasharray: 3px, 3px; stroke-width: 1px;"/></g></g></g><g class="infolayer"><g class="legend" pointer-events="all" transform="translate(179,39.999999999999986)"><rect class="bg" shape-rendering="crispEdges" width="241" height="48" x="0" y="0" style="stroke: rgb(68, 68, 68); stroke-opacity: 1; fill: rgb(255, 255, 255); fill-opacity: 1; stroke-width: 0px;"/><g class="scrollbox" transform="" clip-path="url(#legend10ef40)"><g class="groups" transform=""><g class="traces" transform="translate(0,14.5)" style="opacity: 1;"><text class="legendtext" text-anchor="start" x="40" y="4.680000000000001" style="font-family: Rockwell; font-size: 12px; fill: rgb(36, 36, 36); fill-opacity: 1; white-space: pre;">Asia</text><g class="layers" style="opacity: 1;"><g class="legendfill"/><g class="legendlines"/><g class="legendsymbols"><g class="legendpoints"><path class="scatterpts" transform="translate(20,0)" d="M6,0A6,6 0 1,1 0,-6A6,6 0 0,1 6,0Z" style="opacity: 0.7; stroke-width: 2px; fill: rgb(51, 102, 204); fill-opacity: 1; stroke: rgb(255, 255, 255); stroke-opacity: 1;"/></g></g></g><rect class="legendtoggle" x="0" y="-9.5" width="68.84375" height="19" style="fill: rgb(0, 0, 0); fill-opacity: 0;"/></g></g><g class="groups" transform="translate(71.34375,0)"><g class="traces" transform="translate(0,14.5)" style="opacity: 1;"><text class="legendtext" text-anchor="start" x="40" y="4.680000000000001" style="font-family: Rockwell; font-size: 12px; fill: rgb(36, 36, 36); fill-opacity: 1; white-space: pre;">Europe</text><g class="layers" style="opacity: 1;"><g class="legendfill"/><g class="legendlines"/><g class="legendsymbols"><g class="legendpoints"><path class="scatterpts" transform="translate(20,0)" d="M6,0A6,6 0 1,1 0,-6A6,6 0 0,1 6,0Z" style="opacity: 0.7; stroke-width: 2px; fill: rgb(220, 57, 18); fill-opacity: 1; stroke: rgb(255, 255, 255); stroke-opacity: 1;"/></g></g></g><rect class="legendtoggle" x="0" y="-9.5" width="85.609375" height="19" style="fill: rgb(0, 0, 0); fill-opacity: 0;"/></g></g><g class="groups" transform="translate(159.453125,0)"><g class="traces" transform="translate(0,14.5)" style="opacity: 1;"><text class="legendtext" text-anchor="start" x="40" y="4.680000000000001" style="font-family: Rockwell; font-size: 12px; fill: rgb(36, 36, 36); fill-opacity: 1; white-space: pre;">Africa</text><g class="layers" style="opacity: 1;"><g class="legendfill"/><g class="legendlines"/><g class="legendsymbols"><g class="legendpoints"><path class="scatterpts" transform="translate(20,0)" d="M6,0A6,6 0 1,1 0,-6A6,6 0 0,1 6,0Z" style="opacity: 0.7; stroke-width: 2px; fill: rgb(255, 153, 0); fill-opacity: 1; stroke: rgb(255, 255, 255); stroke-opacity: 1;"/></g></g></g><rect class="legendtoggle" x="0" y="-9.5" width="78.828125" height="19" style="fill: rgb(0, 0, 0); fill-opacity: 0;"/></g></g><g class="groups" transform="translate(0,19)"><g class="traces" transform="translate(0,14.5)" style="opacity: 1;"><text class="legendtext" text-anchor="start" x="40" y="4.680000000000001" style="font-family: Rockwell; font-size: 12px; fill: rgb(36, 36, 36); fill-opacity: 1; white-space: pre;">Americas</text><g class="layers" style="opacity: 1;"><g class="legendfill"/><g class="legendlines"/><g class="legendsymbols"><g class="legendpoints"><path class="scatterpts" transform="translate(20,0)" d="M6,0A6,6 0 1,1 0,-6A6,6 0 0,1 6,0Z" style="opacity: 0.7; stroke-width: 2px; fill: rgb(16, 150, 24); fill-opacity: 1; stroke: rgb(255, 255, 255); stroke-opacity: 1;"/></g></g></g><rect class="legendtoggle" x="0" y="-9.5" width="99.78125" height="19" style="fill: rgb(0, 0, 0); fill-opacity: 0;"/></g></g><g class="groups" transform="translate(102.28125,19)"><g class="traces" transform="translate(0,14.5)" style="opacity: 1;"><text class="legendtext" text-anchor="start" x="40" y="4.680000000000001" style="font-family: Rockwell; font-size: 12px; fill: rgb(36, 36, 36); fill-opacity: 1; white-space: pre;">Oceania</text><g class="layers" style="opacity: 1;"><g class="legendfill"/><g class="legendlines"/><g class="legendsymbols"><g class="legendpoints"><path class="scatterpts" transform="translate(20,0)" d="M6,0A6,6 0 1,1 0,-6A6,6 0 0,1 6,0Z" style="opacity: 0.7; stroke-width: 2px; fill: rgb(153, 0, 153); fill-opacity: 1; stroke: rgb(255, 255, 255); stroke-opacity: 1;"/></g></g></g><rect class="legendtoggle" x="0" y="-9.5" width="92.21875" height="19" style="fill: rgb(0, 0, 0); fill-opacity: 0;"/></g></g></g><rect class="scrollbar" rx="20" ry="3" width="0" height="0" x="0" y="0" style="fill: rgb(128, 139, 164); fill-opacity: 1;"/></g><g class="g-gtitle"><text class="gtitle" x="25" y="50" text-anchor="start" dy="0em" style="opacity: 1; font-family: Rockwell; font-size: 17px; fill: rgb(36, 36, 36); fill-opacity: 1; white-space: pre;">Health vs Wealth 2007</text></g><g class="g-xtitle"><text class="xtitle" x="250" y="268.70625" text-anchor="middle" style="opacity: 1; font-family: Rockwell; font-size: 14px; fill: rgb(36, 36, 36); fill-opacity: 1; white-space: pre;">GDP per Capita (US$, price-adjusted)</text></g><g class="g-ytitle"><text class="ytitle" transform="rotate(-90,38.1,160)" x="38.1" y="160" text-anchor="middle" style="opacity: 1; font-family: Rockwell; font-size: 14px; fill: rgb(36, 36, 36); fill-opacity: 1; white-space: pre;">Life Expectancy (years)</text></g></g></svg>